<svg width="62" height="82" viewBox="0 0 62 82" fill="none" xmlns="http://www.w3.org/2000/svg">
<path d="M54.56 0H7.44C3.3328 0.00433716 0.00473029 3.05583 0 6.82172V74.3895C0.00473029 78.1554 3.3328 81.2069 7.44 81.2113H54.56C58.6672 81.2069 61.9953 78.1554 62 74.3895V6.82172C61.9953 3.05583 58.6672 0.00433716 54.56 0ZM59.0477 74.3895C59.0456 76.661 57.0373 78.5018 54.56 78.5043H7.44C4.9627 78.5018 2.95438 76.661 2.95235 74.3895V6.82172C2.95438 4.55029 4.9627 2.70948 7.44 2.707H54.56C57.0373 2.70948 59.0456 4.55029 59.0477 6.82172V74.3895Z" fill="white"/>
<path d="M18.3648 37.384C18.8588 37.6913 19.5061 37.6963 20.0048 37.3958L24.0053 34.9843L26.636 38.6523C27.0847 39.2762 28.0003 39.4485 28.6815 39.0365C29.0072 38.8394 29.2349 38.5321 29.314 38.1808L31.2534 29.5716L33.1921 38.1808C33.3563 38.9132 34.1368 39.3847 34.9348 39.2341C35.3193 39.1616 35.6559 38.9522 35.8714 38.6523L38.5035 34.9843L42.5025 37.3958C43.183 37.8072 44.0987 37.6337 44.5467 37.0098C44.7622 36.7093 44.8386 36.3431 44.7595 35.9912L41.4463 21.2839C44.4953 15.9976 42.2931 9.44538 36.5276 6.64978C30.7621 3.85419 23.616 5.87344 20.5671 11.1598C18.6195 14.5366 18.7567 18.6042 20.9272 21.8645L17.7492 35.9912C17.6289 36.5265 17.8715 37.0761 18.3648 37.384ZM38.8913 31.9781C38.2102 31.5673 37.2952 31.7401 36.8472 32.3653L35.3707 34.4329L33.6496 26.7884C35.6842 26.3584 37.5581 25.4401 39.0785 24.1272L41.1544 33.3381L38.8913 31.9781ZM31.004 8.1207C35.8957 8.1207 39.861 11.7565 39.861 16.2417C39.861 20.7269 35.8957 24.3633 31.004 24.3633C26.1123 24.3633 22.147 20.7269 22.147 16.2417C22.1517 11.7583 26.1143 8.12503 31.004 8.1207ZM23.3572 24.4779C24.925 25.7059 26.8171 26.5343 28.8443 26.8807L27.1441 34.4329L25.6602 32.3653C25.2128 31.7445 24.3026 31.5716 23.6228 31.9781L21.3678 33.3313L23.3572 24.4779Z" fill="white"/>
<path d="M11.8086 44.6665H50.1898V47.3735H11.8086V44.6665Z" fill="white"/>
<path d="M11.8086 54.1406H50.1898V56.8477H11.8086V54.1406Z" fill="white"/>
<path d="M11.8086 64.9688H50.1898V67.6758H11.8086V64.9688Z" fill="white"/>
</svg>
