<svg width="75" height="73" viewBox="0 0 75 73" fill="none" xmlns="http://www.w3.org/2000/svg">
<path d="M63.846 12.0938C63.215 12.0938 62.7034 12.5905 62.7034 13.2031V18.75H58.1329V13.2031C58.1329 12.5905 57.6213 12.0938 56.9903 12.0938C56.3593 12.0938 55.8477 12.5905 55.8477 13.2031V19.8594C55.8477 20.472 56.3593 20.9688 56.9903 20.9688H62.7034V26.5156C62.7034 27.1283 63.215 27.625 63.846 27.625C64.477 27.625 64.9886 27.1283 64.9886 26.5156V13.2031C64.9886 12.5905 64.477 12.0938 63.846 12.0938Z" fill="white" stroke="white" stroke-width="0.5"/>
<path d="M49.3495 22.0213L49.5989 21.9408C51.9676 21.1742 53.559 19.0303 53.559 16.6062C53.559 14.1764 51.5318 12.0596 48.9006 12.0947C46.4288 12.1402 44.418 14.1305 44.418 16.5313C44.418 17.144 44.9296 17.6407 45.5606 17.6407C46.1916 17.6407 46.7032 17.144 46.7032 16.5313C46.7032 15.331 47.7084 14.3357 48.9439 14.3131C50.2205 14.2826 51.2737 15.3638 51.2737 16.6062C51.2737 18.0738 50.3102 19.3716 48.8765 19.8357L48.6271 19.9163C46.1095 20.7311 44.418 23.0098 44.418 25.5863V26.5158C44.418 27.1284 44.9296 27.6252 45.5606 27.6252H52.4163C53.0473 27.6252 53.559 27.1284 53.559 26.5158C53.559 25.9031 53.0473 25.4064 52.4163 25.4064H46.7076C46.7831 23.8609 47.8256 22.5146 49.3495 22.0213Z" fill="white" stroke="white" stroke-width="0.5"/>
<path d="M74.1232 19.5659C73.9625 9.3579 65.4639 1.12476 54.9401 1.00134C40.5917 0.839644 31.0484 15.381 37.1143 27.8756L35.3652 34.9002C34.8243 37.07 36.773 39.0981 39.1107 38.6634L47.0366 37.1929C59.9151 42.5775 74.3377 33.1984 74.1232 19.5659ZM47.6436 35.0278C47.4275 34.9326 47.1867 34.9059 46.9576 34.9487C37.9381 36.6221 38.6985 36.4895 38.5078 36.4996C37.9097 36.4996 37.5612 36.0693 37.5612 35.627C37.5612 35.4739 37.4249 36.0706 39.4317 28.0107C39.4949 27.7569 39.4638 27.4894 39.344 27.2557C33.6781 16.2032 42.1091 3.07602 54.9123 3.21996C64.2605 3.32979 71.6952 10.5247 71.838 19.5999C72.028 31.6607 59.1277 40.0785 47.6436 35.0278Z" fill="white" stroke="white" stroke-width="0.5"/>
<path d="M52.5977 48.5753C50.8119 46.8414 47.9206 46.8405 46.134 48.5752L41.109 53.454L39.6732 52.6175C31.9975 48.146 25.5703 41.9067 20.9635 34.4523L20.1019 33.0582L25.127 28.1794C26.913 26.4452 26.9133 23.6381 25.127 21.9038L16.2394 13.2747C14.4572 11.5445 11.5578 11.5449 9.77569 13.2747L3.1747 19.6835C1.48246 21.3266 0.707181 23.6759 1.10053 25.9679C1.82096 30.1633 3.28296 33.9393 6.00071 37.5376C11.9905 45.4675 16.6443 49.7529 22.8565 55.7842C27.0847 59.8894 31.6734 63.7116 36.4954 67.1449C39.8598 69.5402 43.8131 71.1582 47.9285 71.8243C48.5282 71.9211 48.9398 72.0001 49.6276 72.0001C51.5809 72.0001 53.4825 71.2498 54.8845 69.8886L61.4852 63.4798C63.2713 61.7457 63.2716 58.9385 61.4852 57.2041L52.5977 48.5753ZM11.3915 14.8438C12.2826 13.9787 13.7323 13.9786 14.6234 14.8438L23.511 23.4728C24.404 24.3397 24.4042 25.7435 23.511 26.6106L21.895 28.1794L9.77554 16.4126L11.3915 14.8438ZM53.2686 68.3196C52.0969 69.4573 50.4218 69.9781 48.7872 69.7138C44.8107 69.0709 41.2576 67.784 37.8469 65.3557C33.1184 61.989 28.6186 58.2408 24.4724 54.2153C18.4107 48.33 13.7833 44.0892 7.84349 36.2255C5.40283 32.9941 4.03653 29.5738 3.35466 25.603C3.08229 24.0163 3.61918 22.3898 4.79067 21.2523L8.15957 17.9815L20.2791 29.7484L17.8551 32.1016C17.4843 32.4616 17.4135 33.0204 17.6833 33.4569L19.0039 35.5937C23.8021 43.358 30.498 49.8599 38.4975 54.52L40.6983 55.802C41.1477 56.0638 41.7234 55.9952 42.0941 55.6352L44.5179 53.2818L56.6373 65.0486L53.2686 68.3196ZM59.8693 61.9108L58.2533 63.4798L46.134 51.7131L47.7499 50.1441C48.6428 49.2773 50.0883 49.2769 50.9817 50.1443L59.8694 58.7733C60.7624 59.6401 60.7625 61.0437 59.8693 61.9108Z" fill="white" stroke="white" stroke-width="0.5"/>
</svg>
