<svg width="73" height="71" viewBox="0 0 73 71" fill="none" xmlns="http://www.w3.org/2000/svg">
<path d="M25.6996 48.2426C25.3629 47.8987 24.9632 47.6259 24.5233 47.4397C24.0833 47.2536 23.6118 47.1578 23.1357 47.1578C22.6595 47.1578 22.188 47.2536 21.748 47.4397C21.3081 47.6259 20.9084 47.8987 20.5717 48.2426L18.8628 49.988C18.7506 50.1028 18.6173 50.1938 18.4706 50.256C18.3239 50.3181 18.1666 50.3501 18.0078 50.3501C17.849 50.3501 17.6917 50.3181 17.545 50.256C17.3983 50.1938 17.265 50.1028 17.1528 49.988L15.4439 48.2426C15.3315 48.128 15.2424 47.9918 15.1815 47.842C15.1207 47.6921 15.0894 47.5315 15.0894 47.3693C15.0894 47.2071 15.1207 47.0464 15.1815 46.8966C15.2424 46.7467 15.3315 46.6106 15.4439 46.496L18.8616 43.0051C19.0818 42.7723 19.2036 42.4605 19.2008 42.1369C19.1981 41.8132 19.071 41.5036 18.8469 41.2748C18.6228 41.0459 18.3197 40.9161 18.0029 40.9133C17.686 40.9104 17.3807 41.0349 17.1528 41.2597L13.735 44.7518C13.3983 45.0957 13.1311 45.5039 12.9489 45.9532C12.7667 46.4026 12.6729 46.8842 12.6729 47.3705C12.6729 47.8569 12.7667 48.3385 12.9489 48.7878C13.1311 49.2371 13.3983 49.6454 13.735 49.9893L15.4439 51.7347C15.7806 52.0786 16.1803 52.3515 16.6202 52.5376C17.0601 52.7237 17.5316 52.8195 18.0078 52.8195C18.484 52.8195 18.9555 52.7237 19.3954 52.5376C19.8353 52.3515 20.2351 52.0786 20.5717 51.7347L22.2806 49.9893C22.3929 49.8745 22.5261 49.7835 22.6729 49.7213C22.8196 49.6592 22.9768 49.6272 23.1357 49.6272C23.2945 49.6272 23.4517 49.6592 23.5985 49.7213C23.7452 49.7835 23.8785 49.8745 23.9907 49.9893L25.6996 51.7335C25.812 51.8481 25.9011 51.9842 25.9619 52.1341C26.0227 52.2839 26.054 52.4446 26.054 52.6068C26.054 52.769 26.0227 52.9296 25.9619 53.0795C25.9011 53.2293 25.812 53.3655 25.6996 53.4801L22.2818 56.9722C22.1664 57.086 22.0743 57.2222 22.011 57.3728C21.9476 57.5234 21.9143 57.6854 21.9129 57.8493C21.9115 58.0132 21.9421 58.1758 22.0029 58.3275C22.0636 58.4792 22.1534 58.617 22.2668 58.7329C22.3803 58.8488 22.5153 58.9404 22.6638 59.0025C22.8123 59.0646 22.9714 59.0958 23.1319 59.0944C23.2924 59.093 23.451 59.0589 23.5984 58.9942C23.7459 58.9295 23.8792 58.8355 23.9907 58.7176L27.4097 55.2268C27.7464 54.8829 28.0135 54.4746 28.1958 54.0253C28.378 53.576 28.4718 53.0944 28.4718 52.608C28.4718 52.1217 28.378 51.6401 28.1958 51.1907C28.0135 50.7414 27.7464 50.3331 27.4097 49.9893L25.6996 48.2426Z" fill="white"/>
<path d="M39.4949 40.713L26.6759 32.8574C26.4449 32.7159 26.1742 32.6572 25.9069 32.6908C25.6395 32.7243 25.3908 32.8481 25.2002 33.0425L23.4901 34.7892C23.2998 34.9839 23.1786 35.2379 23.1457 35.5109C23.1129 35.784 23.1703 36.0604 23.3088 36.2964L31 49.3894C31.0818 49.5284 31.1895 49.6496 31.3171 49.7461C31.4447 49.8426 31.5896 49.9124 31.7437 49.9517C31.8977 49.9909 32.0578 49.9988 32.2148 49.9749C32.3718 49.951 32.5227 49.8957 32.6588 49.8122C32.7948 49.7287 32.9135 49.6187 33.008 49.4883C33.1024 49.358 33.1708 49.21 33.2093 49.0527C33.2477 48.8953 33.2554 48.7318 33.232 48.5715C33.2085 48.4111 33.1544 48.257 33.0727 48.118L30.994 44.5803L34.7864 40.7068L38.2501 42.8299C38.3862 42.9134 38.537 42.9687 38.6941 42.9926C38.8511 43.0166 39.0112 43.0087 39.1652 42.9694C39.3192 42.9302 39.4642 42.8603 39.5918 42.7638C39.7193 42.6674 39.8271 42.5462 39.9088 42.4072C39.9906 42.2682 40.0447 42.1141 40.0681 41.9537C40.0915 41.7933 40.0838 41.6298 40.0454 41.4725C40.007 41.3152 39.9386 41.1671 39.8441 41.0368C39.7496 40.9065 39.631 40.7965 39.4949 40.713ZM29.7117 42.3991L25.8661 35.8569L26.2408 35.4743L32.6461 39.4021L29.7117 42.3991Z" fill="white"/>
<path d="M46.9193 31.8079L42.6459 36.1726L33.2458 26.5717C33.1343 26.4538 33.001 26.3597 32.8535 26.295C32.7061 26.2303 32.5475 26.1963 32.387 26.1949C32.2265 26.1934 32.0674 26.2247 31.9189 26.2867C31.7704 26.3488 31.6354 26.4405 31.5219 26.5564C31.4085 26.6723 31.3187 26.8101 31.258 26.9618C31.1972 27.1135 31.1666 27.276 31.168 27.4399C31.1694 27.6038 31.2027 27.7658 31.2661 27.9164C31.3294 28.067 31.4215 28.2032 31.5369 28.3171L41.7914 38.7907C42.0181 39.0222 42.3254 39.1522 42.6459 39.1522C42.9663 39.1522 43.2737 39.0222 43.5003 38.7907L48.6282 33.5533C48.8483 33.3205 48.9701 33.0087 48.9674 32.685C48.9646 32.3614 48.8375 32.0518 48.6134 31.8229C48.3894 31.5941 48.0862 31.4642 47.7694 31.4614C47.4525 31.4586 47.1472 31.583 46.9193 31.8079Z" fill="white"/>
<path d="M54.9628 23.591L51.5438 27.0831L48.1261 23.591L49.835 21.8456C50.0551 21.6128 50.1769 21.301 50.1742 20.9773C50.1714 20.6537 50.0443 20.3441 49.8202 20.1152C49.5962 19.8864 49.293 19.7565 48.9762 19.7537C48.6593 19.7509 48.354 19.8753 48.1261 20.1002L46.4172 21.8456L42.9982 18.3548L46.4172 14.8627C46.5326 14.7489 46.6247 14.6127 46.688 14.4621C46.7514 14.3115 46.7847 14.1495 46.7861 13.9856C46.7875 13.8217 46.7569 13.6591 46.6962 13.5074C46.6354 13.3557 46.5456 13.2179 46.4322 13.102C46.3187 12.9861 46.1838 12.8945 46.0352 12.8324C45.8867 12.7703 45.7276 12.7391 45.5671 12.7405C45.4066 12.7419 45.248 12.776 45.1006 12.8407C44.9532 12.9054 44.8198 12.9994 44.7083 13.1173L40.4349 17.4821C40.2083 17.7136 40.0811 18.0275 40.0811 18.3548C40.0811 18.6821 40.2083 18.996 40.4349 19.2275L50.6894 29.7012C50.916 29.9326 51.2234 30.0626 51.5438 30.0626C51.8643 30.0626 52.1716 29.9326 52.3983 29.7012L56.6717 25.3364C56.7871 25.2226 56.8792 25.0864 56.9425 24.9358C57.0059 24.7852 57.0392 24.6232 57.0406 24.4593C57.042 24.2954 57.0114 24.1328 56.9507 23.9811C56.8899 23.8294 56.8001 23.6916 56.6867 23.5757C56.5732 23.4598 56.4383 23.3682 56.2897 23.3061C56.1412 23.244 55.9821 23.2128 55.8216 23.2142C55.6611 23.2156 55.5026 23.2497 55.3551 23.3144C55.2077 23.3791 55.0743 23.4731 54.9628 23.591Z" fill="white"/>
<path d="M68.1927 16.0278L69.5366 7.10322C69.6794 6.14807 69.6005 5.17202 69.3065 4.25365C69.0125 3.33528 68.5115 2.50025 67.8438 1.81576C67.1761 1.13128 66.3604 0.616476 65.4623 0.312785C64.5643 0.00909426 63.609 -0.0749977 62.6733 0.0672795L44.0617 2.90634C41.7581 3.26222 39.6259 4.35976 37.9754 6.03919L1.76983 43.0051C0.636627 44.1625 0 45.7323 0 47.3692C0 49.0061 0.636627 50.5759 1.76983 51.7333L18.8635 69.1923C19.9967 70.3498 21.5337 71 23.1363 71C24.7389 71 26.2759 70.3498 27.4091 69.1923L47.2293 48.9486C49.3019 59.2963 53.9645 65.8595 59.4174 65.8595C66.8717 65.8595 72.7114 53.3923 72.7114 37.4689C72.7114 29.1393 71.0618 21.3714 68.1927 16.0278ZM25.699 67.4445C25.0085 68.1183 24.0902 68.4944 23.1351 68.4944C22.18 68.4944 21.2617 68.1183 20.5712 67.4445L3.48113 49.9879C3.1444 49.644 2.87728 49.2358 2.69504 48.7865C2.51279 48.3371 2.41899 47.8555 2.41899 47.3692C2.41899 46.8828 2.51279 46.4012 2.69504 45.9519C2.87728 45.5026 3.1444 45.0943 3.48113 44.7505L39.6807 7.77719C40.9649 6.47182 42.6232 5.61869 44.4146 5.34177L63.0262 2.5027C63.2074 2.47471 63.3904 2.46068 63.5736 2.46073C64.0965 2.46133 64.6131 2.57745 65.0879 2.80111C65.5628 3.02477 65.9846 3.35069 66.3245 3.75651C66.6645 4.16233 66.9144 4.63844 67.0573 5.1522C67.2001 5.66595 67.2325 6.20518 67.1521 6.73291L66.2155 12.9566C65.5328 12.0899 64.7417 11.3184 63.8625 10.6619C63.8542 9.37 63.3469 8.13365 62.4509 7.22172C61.5294 6.32483 60.3054 5.82453 59.0325 5.82453C57.7597 5.82453 56.5356 6.32483 55.6142 7.22172C55.1209 7.71364 54.7365 8.3076 54.4865 8.96376C54.2365 9.61992 54.1268 10.3231 54.1647 11.0261C54.2027 11.7291 54.3874 12.4157 54.7065 13.0399C55.0256 13.664 55.4717 14.2112 56.0149 14.6447C56.558 15.0783 57.1857 15.3882 57.8558 15.5536C58.5258 15.719 59.2228 15.7362 59.8998 15.6039C60.5769 15.4716 61.2185 15.1929 61.7814 14.7866C62.3444 14.3803 62.8158 13.8556 63.1639 13.2479C64.1591 14.1939 65.0086 15.2879 65.6838 16.4931L64.3036 25.6571C64.0332 27.4748 63.1986 29.1558 61.9228 30.4527L25.699 67.4445ZM59.4174 11.547C60.0068 11.551 60.5898 11.6709 61.1348 11.9C61.028 12.1034 60.8942 12.2908 60.7372 12.4567C60.3847 12.8258 59.9292 13.0746 59.433 13.1691C58.9368 13.2636 58.4241 13.1991 57.9652 12.9846C57.5062 12.77 57.1234 12.4157 56.8691 11.9704C56.6148 11.525 56.5015 11.0103 56.5447 10.4966C56.5879 9.98292 56.7855 9.49544 57.1104 9.10089C57.4353 8.70633 57.8717 8.42398 58.3598 8.29249C58.8479 8.161 59.3638 8.18679 59.837 8.36633C60.3101 8.54588 60.7174 8.8704 61.0031 9.29548C60.4847 9.15952 59.9525 9.0866 59.4174 9.07823C59.0969 9.07823 58.7895 9.20827 58.5629 9.43977C58.3362 9.67126 58.2089 9.98522 58.2089 10.3126C58.2089 10.64 58.3362 10.9539 58.5629 11.1854C58.7895 11.4169 59.0969 11.547 59.4174 11.547ZM59.4174 63.3908C55.0498 63.3908 50.9371 56.6017 49.308 46.823L63.6256 32.1981C65.2674 30.5293 66.3402 28.3655 66.6856 26.0262L67.5316 20.4431C69.4424 25.9039 70.3781 31.6705 70.2943 37.4689C70.2943 51.5198 65.3127 63.3908 59.4174 63.3908Z" fill="white"/>
</svg>
