<svg width="71" height="80" viewBox="0 0 71 80" fill="none" xmlns="http://www.w3.org/2000/svg">
<path d="M69.4565 18.5224H40.1304V1.54348C40.1304 0.69117 39.4394 0 38.587 0H1.54348C0.691015 0 0 0.69117 0 1.54348V77.4825C0 78.3348 0.691015 79.0259 1.54348 79.0259H38.587H69.4565C70.309 79.0259 71 78.3348 71 77.4825V20.0658C71 19.2134 70.3088 18.5224 69.4565 18.5224ZM40.1304 21.6093H67.913V60.5042H40.1304V21.6093ZM15.4348 75.939V63.5911H24.6957V75.939H15.4348ZM26.2391 60.5042H13.8913C13.0388 60.5042 12.3478 61.1954 12.3478 62.0477V75.939H3.08696V3.08696H37.0435V75.939H27.7826V62.0477C27.7826 61.1954 27.0914 60.5042 26.2391 60.5042ZM40.1303 75.939V63.5911H67.9129V75.939H40.1303Z" fill="white"/>
<path d="M18.52 12.3482H21.6065C22.459 12.3482 23.15 11.6572 23.15 10.8048V7.71779C23.15 6.86533 22.459 6.17432 21.6065 6.17432H18.52C17.6676 6.17432 16.9766 6.86533 16.9766 7.71779V10.8048C16.9766 11.6572 17.6676 12.3482 18.52 12.3482Z" fill="white"/>
<path d="M18.52 23.1524H21.6065C22.459 23.1524 23.15 22.4614 23.15 21.609V18.522C23.15 17.6695 22.459 16.9785 21.6065 16.9785H18.52C17.6676 16.9785 16.9766 17.6695 16.9766 18.522V21.609C16.9766 22.4614 17.6676 23.1524 18.52 23.1524Z" fill="white"/>
<path d="M18.52 33.9566H21.6065C22.459 33.9566 23.15 33.2656 23.15 32.4131V29.3262C23.15 28.4737 22.459 27.7827 21.6065 27.7827H18.52C17.6676 27.7827 16.9766 28.4737 16.9766 29.3262V32.4131C16.9766 33.2656 17.6676 33.9566 18.52 33.9566Z" fill="white"/>
<path d="M18.52 44.7608H21.6065C22.459 44.7608 23.15 44.0698 23.15 43.2173V40.1304C23.15 39.2779 22.459 38.5869 21.6065 38.5869H18.52C17.6676 38.5869 16.9766 39.2779 16.9766 40.1304V43.2173C16.9766 44.0698 17.6676 44.7608 18.52 44.7608Z" fill="white"/>
<path d="M18.52 55.5655H21.6065C22.459 55.5655 23.15 54.8745 23.15 54.022V50.9351C23.15 50.0826 22.459 49.3916 21.6065 49.3916H18.52C17.6676 49.3916 16.9766 50.0826 16.9766 50.9351V54.022C16.9766 54.8745 17.6676 55.5655 18.52 55.5655Z" fill="white"/>
<path d="M7.71926 12.3482H10.8058C11.6582 12.3482 12.3492 11.6572 12.3492 10.8048V7.71779C12.3492 6.86533 11.6582 6.17432 10.8058 6.17432H7.71926C6.8668 6.17432 6.17578 6.86533 6.17578 7.71779V10.8048C6.17578 11.6572 6.8668 12.3482 7.71926 12.3482Z" fill="white"/>
<path d="M7.71926 23.1524H10.8058C11.6582 23.1524 12.3492 22.4614 12.3492 21.609V18.522C12.3492 17.6695 11.6582 16.9785 10.8058 16.9785H7.71926C6.8668 16.9785 6.17578 17.6695 6.17578 18.522V21.609C6.17578 22.4614 6.8668 23.1524 7.71926 23.1524Z" fill="white"/>
<path d="M7.71926 33.9566H10.8058C11.6582 33.9566 12.3492 33.2656 12.3492 32.4131V29.3262C12.3492 28.4737 11.6582 27.7827 10.8058 27.7827H7.71926C6.8668 27.7827 6.17578 28.4737 6.17578 29.3262V32.4131C6.17578 33.2656 6.8668 33.9566 7.71926 33.9566Z" fill="white"/>
<path d="M7.71926 44.7608H10.8058C11.6582 44.7608 12.3492 44.0698 12.3492 43.2173V40.1304C12.3492 39.2779 11.6582 38.5869 10.8058 38.5869H7.71926C6.8668 38.5869 6.17578 39.2779 6.17578 40.1304V43.2173C6.17578 44.0698 6.8668 44.7608 7.71926 44.7608Z" fill="white"/>
<path d="M7.71926 55.5655H10.8058C11.6582 55.5655 12.3492 54.8745 12.3492 54.022V50.9351C12.3492 50.0826 11.6582 49.3916 10.8058 49.3916H7.71926C6.8668 49.3916 6.17578 50.0826 6.17578 50.9351V54.022C6.17578 54.8745 6.8668 55.5655 7.71926 55.5655Z" fill="white"/>
<path d="M32.4112 6.17432H29.3247C28.4723 6.17432 27.7812 6.86533 27.7812 7.71779V10.8048C27.7812 11.6572 28.4723 12.3482 29.3247 12.3482H32.4112C33.2637 12.3482 33.9547 11.6572 33.9547 10.8048V7.71779C33.9547 6.86533 33.2637 6.17432 32.4112 6.17432Z" fill="white"/>
<path d="M32.4112 16.9785H29.3247C28.4723 16.9785 27.7812 17.6695 27.7812 18.522V21.609C27.7812 22.4614 28.4723 23.1524 29.3247 23.1524H32.4112C33.2637 23.1524 33.9547 22.4614 33.9547 21.609V18.522C33.9547 17.6697 33.2637 16.9785 32.4112 16.9785Z" fill="white"/>
<path d="M32.4112 27.7827H29.3247C28.4723 27.7827 27.7812 28.4737 27.7812 29.3262V32.4131C27.7812 33.2656 28.4723 33.9566 29.3247 33.9566H32.4112C33.2637 33.9566 33.9547 33.2656 33.9547 32.4131V29.3262C33.9547 28.4739 33.2637 27.7827 32.4112 27.7827Z" fill="white"/>
<path d="M32.4112 38.5869H29.3247C28.4723 38.5869 27.7812 39.2779 27.7812 40.1304V43.2173C27.7812 44.0698 28.4723 44.7608 29.3247 44.7608H32.4112C33.2637 44.7608 33.9547 44.0698 33.9547 43.2173V40.1304C33.9547 39.2781 33.2637 38.5869 32.4112 38.5869Z" fill="white"/>
<path d="M32.4112 49.3916H29.3247C28.4723 49.3916 27.7812 50.0826 27.7812 50.9351V54.022C27.7812 54.8745 28.4723 55.5655 29.3247 55.5655H32.4112C33.2637 55.5655 33.9547 54.8745 33.9547 54.022V50.9351C33.9547 50.0826 33.2637 49.3916 32.4112 49.3916Z" fill="white"/>
<path d="M60.9659 27.7827H57.8794C57.027 27.7827 56.3359 28.4737 56.3359 29.3262V32.4131C56.3359 33.2656 57.027 33.9566 57.8794 33.9566H60.9659C61.8184 33.9566 62.5094 33.2656 62.5094 32.4131V29.3262C62.5094 28.4739 61.8182 27.7827 60.9659 27.7827Z" fill="white"/>
<path d="M60.9659 38.5869H57.8794C57.027 38.5869 56.3359 39.2779 56.3359 40.1304V43.2173C56.3359 44.0698 57.027 44.7608 57.8794 44.7608H60.9659C61.8184 44.7608 62.5094 44.0698 62.5094 43.2173V40.1304C62.5094 39.2781 61.8182 38.5869 60.9659 38.5869Z" fill="white"/>
<path d="M60.9659 49.3916H57.8794C57.027 49.3916 56.3359 50.0826 56.3359 50.9351V54.022C56.3359 54.8745 57.027 55.5655 57.8794 55.5655H60.9659C61.8184 55.5655 62.5094 54.8745 62.5094 54.022V50.9351C62.5094 50.0826 61.8182 49.3916 60.9659 49.3916Z" fill="white"/>
<path d="M50.1612 27.7827H47.0747C46.2223 27.7827 45.5312 28.4737 45.5312 29.3262V32.4131C45.5312 33.2656 46.2223 33.9566 47.0747 33.9566H50.1612C51.0137 33.9566 51.7047 33.2656 51.7047 32.4131V29.3262C51.7047 28.4739 51.0135 27.7827 50.1612 27.7827Z" fill="white"/>
<path d="M50.1612 38.5869H47.0747C46.2223 38.5869 45.5312 39.2779 45.5312 40.1304V43.2173C45.5312 44.0698 46.2223 44.7608 47.0747 44.7608H50.1612C51.0137 44.7608 51.7047 44.0698 51.7047 43.2173V40.1304C51.7047 39.2781 51.0135 38.5869 50.1612 38.5869Z" fill="white"/>
<path d="M50.1612 49.3916H47.0747C46.2223 49.3916 45.5312 50.0826 45.5312 50.9351V54.022C45.5312 54.8745 46.2223 55.5655 47.0747 55.5655H50.1612C51.0137 55.5655 51.7047 54.8745 51.7047 54.022V50.9351C51.7047 50.0826 51.0135 49.3916 50.1612 49.3916Z" fill="white"/>
</svg>
