<svg width="34" height="33" viewBox="0 0 34 33" fill="none" xmlns="http://www.w3.org/2000/svg">
<circle cx="17.3552" cy="16.4099" r="16.4099" fill="white"/>
<circle cx="17.357" cy="16.41" r="13.8853" fill="#9330B2"/>
<path d="M15.2647 14.764L15.6422 14.3864L15.6426 14.386L15.2646 14.7639L15.2647 14.764Z" fill="#E5E5E5"/>
<path d="M19.4642 18.2084L19.083 18.5896L19.0831 18.5897L19.4643 18.2085L19.4642 18.2084Z" fill="#E5E5E5"/>
<path d="M24.1979 21.559L23.7933 19.367C23.7598 19.1859 23.6195 19.0435 23.439 19.0074L20.2566 18.3709C20.1088 18.3415 19.9565 18.3876 19.85 18.494L18.5571 19.7869C16.3787 18.8109 15.1698 17.5993 14.106 15.3274L15.3947 14.0387C15.5011 13.9323 15.5473 13.7797 15.5178 13.6321L14.8813 10.4497C14.8452 10.2692 14.7028 10.1288 14.5217 10.0954L12.3297 9.69081C12.2697 9.67979 12.2079 9.68095 12.1483 9.6945C11.5696 9.82597 11.0415 10.1176 10.6211 10.538C9.89329 11.2659 9.61512 12.328 9.81677 13.6095C10.1553 15.7613 11.2095 18.756 13.1547 20.709L13.1812 20.7353C15.1326 22.6791 18.1274 23.7334 20.2794 24.072C20.5505 24.1147 20.8116 24.1359 21.0619 24.1359C21.9951 24.1359 22.7769 23.8415 23.3509 23.2676C23.7712 22.8472 24.063 22.3191 24.1944 21.7404C24.2077 21.6808 24.209 21.6191 24.1979 21.559Z" fill="white"/>
<path d="M18.3016 12.4368C18.0531 12.4368 17.8516 12.6383 17.8516 12.8868C17.8516 13.1353 18.0531 13.3368 18.3016 13.3368C19.2943 13.3368 20.1019 14.1444 20.1019 15.1371C20.1019 15.3823 20.3067 15.5871 20.5519 15.5871C20.7971 15.5871 21.0019 15.3823 21.0019 15.1371C21.002 13.6481 19.7906 12.4368 18.3016 12.4368Z" fill="white"/>
<path d="M18.2986 10.6355C18.1321 10.6355 17.9641 10.6447 17.7992 10.6629C17.5521 10.6902 17.3739 10.9126 17.4012 11.1597C17.4285 11.4068 17.6513 11.5845 17.898 11.5577C18.0302 11.5431 18.165 11.5356 18.2986 11.5356C20.2839 11.5356 21.8991 13.1508 21.8991 15.1361C21.8991 15.2698 21.8916 15.4045 21.877 15.5368C21.8501 15.7805 22.0312 16.0067 22.275 16.0336C22.5188 16.0604 22.7448 15.8794 22.7718 15.6356C22.79 15.4706 22.7992 15.3026 22.7992 15.1361C22.7992 12.6545 20.7803 10.6355 18.2986 10.6355Z" fill="white"/>
<path d="M18.2986 8.83594C18.1378 8.83594 17.9749 8.84205 17.8146 8.85424C17.5667 8.87301 17.381 9.08922 17.3997 9.33702C17.4185 9.58487 17.6354 9.7706 17.8825 9.75183C18.0203 9.74134 18.1603 9.73606 18.2986 9.73606C21.2766 9.73606 23.6993 12.1588 23.6993 15.1368C23.6993 15.5581 23.6507 15.9776 23.5548 16.3834C23.4998 16.616 23.643 16.8577 23.8737 16.9209C24.1163 16.9873 24.373 16.8352 24.4308 16.5904C24.5427 16.1168 24.5994 15.6278 24.5994 15.1368C24.5994 11.6625 21.7729 8.83594 18.2986 8.83594Z" fill="white"/>
</svg>
