<svg width="34" height="33" viewBox="0 0 34 33" fill="none" xmlns="http://www.w3.org/2000/svg">
<circle cx="16.8836" cy="16.4099" r="16.4099" fill="white"/>
<circle cx="16.8853" cy="16.41" r="13.8853" fill="#1BD741"/>
<path d="M25.5769 20.3296C24.9771 19.196 22.7649 17.8996 22.7649 17.8996C22.2644 17.6143 21.6604 17.5823 21.3751 18.0911C21.3751 18.0911 20.6562 18.953 20.4734 19.077C19.6384 19.6427 18.8648 19.6208 18.084 18.84L16.2693 17.0253L14.4546 15.2107C13.6738 14.4299 13.6519 13.6563 14.2176 12.8213C14.3416 12.6385 15.2036 11.9196 15.2036 11.9196C15.7123 11.6338 15.6804 11.0303 15.395 10.5298C15.395 10.5298 14.0986 8.31772 12.965 7.71785C12.4827 7.46259 11.8906 7.55193 11.5049 7.93756L10.7036 8.7389C8.16139 11.281 9.41311 14.1509 11.9553 16.693L14.2787 19.0164L16.602 21.3397C19.1442 23.8818 22.0142 25.1335 24.5563 22.5914L25.3577 21.7901C25.7433 21.4035 25.8322 20.8114 25.5769 20.3296Z" fill="white"/>
</svg>
