<svg width="33" height="33" viewBox="0 0 33 33" fill="none" xmlns="http://www.w3.org/2000/svg">
<circle cx="16.4099" cy="16.4099" r="16.4099" fill="white"/>
<path d="M16.4068 30.2953C24.0755 30.2953 30.2921 24.0786 30.2921 16.41C30.2921 8.74133 24.0755 2.52466 16.4068 2.52466C8.73816 2.52466 2.52148 8.74133 2.52148 16.41C2.52148 24.0786 8.73816 30.2953 16.4068 30.2953Z" fill="#039BE5"/>
<path d="M7.12951 15.0902L22.8019 8.91228C23.5293 8.64362 24.1646 9.0937 23.9289 10.2182L23.9303 10.2168L21.2618 23.0698C21.064 23.981 20.5344 24.2026 19.7934 23.7733L15.7297 20.7114L13.7696 22.6419C13.5529 22.8634 13.37 23.0504 12.9501 23.0504L13.2386 18.8224L20.7701 11.8662C21.0979 11.5712 20.6969 11.405 20.2648 11.6986L10.9575 17.6896L6.94529 16.41C6.0743 16.1274 6.05533 15.5195 7.12951 15.0902Z" fill="white"/>
</svg>
